<?xml version="1.0" encoding="utf-8"?>
<!-- Generator: Adobe Illustrator 16.0.0, SVG Export Plug-In . SVG Version: 6.00 Build 0)  -->
<!DOCTYPE svg PUBLIC "-//W3C//DTD SVG 1.1//EN" "http://www.w3.org/Graphics/SVG/1.1/DTD/svg11.dtd">
<svg version="1.1" id="Layer_1" xmlns="http://www.w3.org/2000/svg" xmlns:xlink="http://www.w3.org/1999/xlink" x="0px" y="0px"
	 width="122.688px" height="95.246px" viewBox="0 0 122.688 95.246" enable-background="new 0 0 122.688 95.246"
	 xml:space="preserve">
<g id="Layer_3">
</g>
<g id="Layer_4">
	<g>
		<path fill="#A2A2A2" d="M55.032,56.537c15.021-14.97,19.166-35.168,9.255-45.115c-9.913-9.951-30.126-5.88-45.149,9.088
			C4.114,35.478-0.029,55.677,9.882,65.625C19.794,75.574,40.008,71.503,55.032,56.537z"/>
		<polygon fill="#03006A" points="35.952,37.84 95.693,5.865 38.085,41.539 		"/>
		<polygon fill="#03006A" points="40.592,42.276 34.903,5 44.76,41.281 		"/>
	</g>
</g>
<g enable-background="new    ">
	<path fill="#FFFFFF" d="M66.777,54.292c1.055,2.367,1.582,4.898,1.582,7.594v0.316c0,0.117-0.013,0.246-0.035,0.387l-0.07,0.598
		h-4.359v0.07H39.706c0.281,1.969,1.137,3.668,2.566,5.098c1.805,1.781,3.914,2.672,6.328,2.672c2.438,0,4.547-0.891,6.328-2.672
		l0.07-0.07l0.105-0.141l0.105-0.105l0.07-0.105l6.047,8.648c-1.735,1.406-3.493,2.473-5.273,3.199
		c-2.391,0.938-4.875,1.406-7.453,1.406c-3.493,0-6.738-0.832-9.738-2.496c-3.071-1.688-5.497-3.996-7.277-6.926
		c-1.828-2.93-2.742-6.223-2.742-9.879c0-2.742,0.527-5.273,1.582-7.594c1.055-2.344,2.508-4.383,4.359-6.117
		c1.875-1.781,3.984-3.129,6.328-4.043c2.414-0.938,4.91-1.406,7.488-1.406c2.578,0,5.063,0.469,7.453,1.406
		c2.367,0.914,4.488,2.25,6.364,4.008C64.268,49.85,65.722,51.901,66.777,54.292z M48.601,52.885c-1.57,0-3.047,0.398-4.43,1.195
		c-0.844,0.516-1.665,1.242-2.461,2.18h13.781c-0.797-0.938-1.617-1.664-2.461-2.18C51.647,53.284,50.171,52.885,48.601,52.885z"/>
	<path fill="#FFFFFF" d="M101.969,58.018v22.148H90.683V58.018c-0.188-3.305-1.605-5.004-4.254-5.098h-0.633
		c-2.86,0.094-4.289,2.074-4.289,5.941v21.305h-11.25V58.862c0-10.195,5.18-15.574,15.539-16.137h0.633
		c4.125,0.234,7.43,1.219,9.914,2.953c2.461-1.734,5.753-2.719,9.879-2.953h0.633c10.358,0.563,15.539,5.941,15.539,16.137v21.305
		h-11.25V58.862c0-3.867-1.43-5.848-4.289-5.941h-0.633C103.573,53.014,102.156,54.713,101.969,58.018z"/>
</g>
<g enable-background="new    ">
	<path fill="#FFFFFF" d="M45.277,84.549c-0.086,0.145-0.203,0.262-0.352,0.352s-0.313,0.135-0.492,0.135s-0.342-0.043-0.486-0.129
		c-0.148-0.09-0.266-0.209-0.352-0.357c-0.09-0.156-0.135-0.322-0.135-0.498c0-0.18,0.043-0.344,0.129-0.492
		c0.094-0.152,0.213-0.271,0.357-0.357s0.307-0.129,0.486-0.129s0.344,0.043,0.492,0.129c0.145,0.086,0.262,0.205,0.352,0.357
		c0.086,0.148,0.129,0.313,0.129,0.492C45.406,84.239,45.363,84.405,45.277,84.549z M45.4,85.75v6.006h-1.869v-6L45.4,85.75z"/>
	<path fill="#FFFFFF" d="M47.703,87.25c0,0.219,0.158,0.373,0.475,0.463c0.348,0.098,0.697,0.189,1.049,0.275
		c0.387,0.102,0.709,0.287,0.967,0.557c0.262,0.273,0.393,0.705,0.393,1.295c0,0.438-0.113,0.816-0.34,1.137
		s-0.529,0.561-0.908,0.721c-0.379,0.164-0.771,0.246-1.178,0.246c-0.34,0-0.646-0.027-0.92-0.082s-0.529-0.145-0.768-0.27
		c-0.246-0.125-0.504-0.293-0.773-0.504l0.949-1.295c0.371,0.383,0.824,0.574,1.359,0.574c0.559,0,0.838-0.168,0.838-0.504
		c0-0.18-0.154-0.311-0.463-0.393c-0.219-0.055-0.566-0.146-1.043-0.275c-0.387-0.105-0.713-0.299-0.979-0.58
		c-0.262-0.277-0.393-0.705-0.393-1.283c0-0.441,0.107-0.816,0.322-1.125c0.219-0.309,0.502-0.535,0.85-0.68
		c0.355-0.148,0.744-0.223,1.166-0.223c0.566,0,0.977,0.074,1.23,0.223c0.242,0.148,0.52,0.227,0.832,0.234l0.914-0.006V83.43
		l1.869,0.012v2.314h1.447l-0.381,1.576h-1.066v1.998c0,0.531,0.332,0.797,0.996,0.797c0.215,0,0.379-0.025,0.492-0.076
		l-0.539,1.863c-0.098,0.016-0.193,0.023-0.287,0.023c-0.559,0-1.023-0.09-1.395-0.27c-0.375-0.18-0.658-0.451-0.85-0.814
		c-0.191-0.359-0.287-0.818-0.287-1.377v-2.145l-0.92,0.006c-0.41,0.004-0.746-0.078-1.008-0.246
		c-0.262-0.164-0.6-0.234-1.014-0.211C47.916,86.881,47.703,87.004,47.703,87.25z"/>
	<path fill="#FFFFFF" d="M61.256,87.438c0.176,0.395,0.264,0.816,0.264,1.266v0.053c0,0.02-0.002,0.041-0.006,0.064l-0.012,0.1
		h-0.727v0.012h-4.031c0.047,0.328,0.189,0.611,0.428,0.85c0.301,0.297,0.652,0.445,1.055,0.445c0.406,0,0.758-0.148,1.055-0.445
		l0.012-0.012l0.018-0.023l0.018-0.018l0.012-0.018l1.008,1.441c-0.289,0.234-0.582,0.412-0.879,0.533
		c-0.398,0.156-0.813,0.234-1.242,0.234c-0.582,0-1.123-0.139-1.623-0.416c-0.512-0.281-0.916-0.666-1.213-1.154
		c-0.305-0.488-0.457-1.037-0.457-1.646c0-0.457,0.088-0.879,0.264-1.266c0.176-0.391,0.418-0.73,0.727-1.02
		c0.313-0.297,0.664-0.521,1.055-0.674c0.402-0.156,0.818-0.234,1.248-0.234s0.844,0.078,1.242,0.234
		c0.395,0.152,0.748,0.375,1.061,0.668C60.838,86.698,61.08,87.04,61.256,87.438z M58.226,87.204c-0.262,0-0.508,0.066-0.738,0.199
		c-0.141,0.086-0.277,0.207-0.41,0.363h2.297c-0.133-0.156-0.27-0.277-0.41-0.363C58.734,87.27,58.488,87.204,58.226,87.204z"/>
	<path fill="#FFFFFF" d="M63.406,84.819c0.328-0.527,0.754-0.924,1.277-1.189c0.52-0.262,1.09-0.393,1.711-0.393
		c0.488,0,0.932,0.096,1.33,0.287c0.406,0.195,0.732,0.477,0.979,0.844c0.242,0.379,0.363,0.814,0.363,1.307
		c0,0.344-0.063,0.645-0.188,0.902c-0.121,0.246-0.322,0.492-0.604,0.738c0.238,0.133,0.445,0.299,0.621,0.498
		c0.172,0.203,0.307,0.432,0.404,0.686c0.094,0.25,0.141,0.508,0.141,0.773c0,0.465-0.088,0.865-0.264,1.201
		c-0.188,0.344-0.432,0.621-0.732,0.832c-0.32,0.223-0.666,0.383-1.037,0.48c-0.387,0.102-0.785,0.152-1.195,0.152
		c-0.355,0-0.703-0.055-1.043-0.164c-0.348-0.109-0.678-0.268-0.99-0.475c-0.32-0.211-0.59-0.443-0.809-0.697l1.354-1.377
		c0.227,0.293,0.449,0.506,0.668,0.639c0.223,0.141,0.492,0.211,0.809,0.211c0.332,0,0.605-0.084,0.82-0.252
		s0.322-0.424,0.322-0.768s-0.117-0.574-0.352-0.691c-0.238-0.113-0.559-0.17-0.961-0.17h-0.328
		c-0.035,0.004-0.088,0.006-0.158,0.006h-0.088l-0.094,0.006v-1.453c0.078,0,0.174-0.002,0.287-0.006h0.152l0.158-0.006
		c0.211-0.008,0.404-0.031,0.58-0.07c0.172-0.039,0.316-0.123,0.434-0.252c0.109-0.121,0.164-0.301,0.164-0.539
		c0-0.32-0.094-0.559-0.281-0.715c-0.191-0.156-0.438-0.234-0.738-0.234c-0.141,0-0.268,0.02-0.381,0.059
		c-0.098,0.035-0.199,0.084-0.305,0.146c-0.078,0.055-0.184,0.141-0.316,0.258c-0.027,0.023-0.057,0.049-0.088,0.076
		c-0.02,0.02-0.045,0.043-0.076,0.07c-0.063,0.055-0.104,0.092-0.123,0.111L63.406,84.819z"/>
	<path fill="#FFFFFF" d="M76.039,88.463h-1.025v3.334l-1.945-0.012v-3.311h-3.322l-0.012-5.045h1.945v3.352h1.389V83.43h1.945v3.352
		h1.037L76.039,88.463z"/>
	<path fill="#FFFFFF" d="M76.349,84.848l-0.006-1.4h2.895v8.303l-1.934,0.006v-6.885L76.349,84.848z"/>
	<path fill="#FFFFFF" d="M81.09,88.686c0.004-0.598,0.162-1.135,0.475-1.611c0.313-0.488,0.734-0.871,1.266-1.148
		c0.531-0.281,1.096-0.422,1.693-0.422c0.457,0,0.891,0.08,1.301,0.24c0.406,0.148,0.775,0.373,1.107,0.674
		c0.328,0.301,0.582,0.645,0.762,1.031s0.27,0.813,0.27,1.277c0,0.453-0.092,0.877-0.275,1.271c-0.18,0.391-0.432,0.732-0.756,1.025
		c-0.324,0.297-0.693,0.521-1.107,0.674c-0.418,0.152-0.852,0.229-1.301,0.229c-0.441,0-0.873-0.076-1.295-0.229l-0.135-0.059
		l-0.135-0.059v2.473l-1.869-0.006V88.686z M82.959,88.727c0,0.277,0.072,0.527,0.217,0.75c0.145,0.23,0.338,0.414,0.58,0.551
		c0.238,0.137,0.494,0.205,0.768,0.205s0.531-0.068,0.773-0.205s0.436-0.32,0.58-0.551c0.145-0.227,0.217-0.477,0.217-0.75
		c0-0.414-0.156-0.773-0.469-1.078c-0.309-0.301-0.676-0.451-1.102-0.451c-0.422,0-0.787,0.15-1.096,0.451
		C83.115,87.95,82.959,88.309,82.959,88.727z"/>
	<path fill="#FFFFFF" d="M91.332,87.309c-0.098-0.066-0.225-0.104-0.381-0.111h-0.105c-0.477,0.02-0.715,0.352-0.715,0.996v3.551
		h-1.875v-3.551c0-1.707,0.863-2.604,2.59-2.689h0.105c0.129,0.004,0.256,0.016,0.381,0.035V87.309z"/>
	<path fill="#FFFFFF" d="M93.365,91.516c-0.531-0.281-0.953-0.666-1.266-1.154c-0.316-0.492-0.475-1.043-0.475-1.652
		c0-0.457,0.092-0.883,0.275-1.277s0.436-0.736,0.756-1.025c0.324-0.293,0.693-0.518,1.107-0.674
		c0.422-0.156,0.854-0.234,1.295-0.234c0.445,0,0.879,0.078,1.301,0.234c0.41,0.148,0.779,0.371,1.107,0.668
		c0.324,0.297,0.576,0.641,0.756,1.031c0.184,0.395,0.275,0.82,0.275,1.277c0,0.465-0.09,0.891-0.27,1.277
		c-0.18,0.391-0.434,0.736-0.762,1.037c-0.332,0.297-0.701,0.521-1.107,0.674c-0.41,0.16-0.844,0.24-1.301,0.24
		C94.461,91.938,93.896,91.797,93.365,91.516z M93.963,89.788c0.309,0.301,0.674,0.451,1.096,0.451c0.426,0,0.793-0.15,1.102-0.451
		c0.313-0.301,0.469-0.66,0.469-1.078c0-0.273-0.072-0.525-0.217-0.756s-0.338-0.414-0.58-0.551
		c-0.238-0.137-0.496-0.205-0.773-0.205c-0.27,0-0.525,0.068-0.768,0.205s-0.436,0.32-0.58,0.551s-0.217,0.482-0.217,0.756
		C93.494,89.127,93.65,89.487,93.963,89.788z"/>
	<path fill="#FFFFFF" d="M97.853,92.284c0.32,0,0.57-0.023,0.75-0.07c0.184-0.043,0.322-0.141,0.416-0.293
		c0.094-0.148,0.141-0.371,0.141-0.668V85.75h1.869v5.684c0,0.438-0.039,0.816-0.117,1.137c-0.086,0.32-0.223,0.58-0.41,0.779
		c-0.195,0.215-0.459,0.371-0.791,0.469c-0.332,0.105-0.756,0.158-1.271,0.158L97.853,92.284z M100.941,84.549
		c-0.086,0.145-0.203,0.262-0.352,0.352s-0.313,0.135-0.492,0.135s-0.342-0.043-0.486-0.129c-0.148-0.09-0.266-0.209-0.352-0.357
		c-0.09-0.156-0.135-0.322-0.135-0.498c0-0.18,0.043-0.344,0.129-0.492c0.094-0.152,0.213-0.271,0.357-0.357
		s0.307-0.129,0.486-0.129s0.344,0.043,0.492,0.129c0.145,0.086,0.262,0.205,0.352,0.357c0.086,0.148,0.129,0.313,0.129,0.492
		C101.07,84.239,101.027,84.405,100.941,84.549z"/>
	<path fill="#FFFFFF" d="M108.019,87.438c0.176,0.395,0.264,0.816,0.264,1.266v0.053c0,0.02-0.002,0.041-0.006,0.064l-0.012,0.1
		h-0.727v0.012h-4.031c0.047,0.328,0.189,0.611,0.428,0.85c0.301,0.297,0.652,0.445,1.055,0.445c0.406,0,0.758-0.148,1.055-0.445
		l0.012-0.012l0.018-0.023l0.018-0.018l0.012-0.018l1.008,1.441c-0.289,0.234-0.582,0.412-0.879,0.533
		c-0.398,0.156-0.813,0.234-1.242,0.234c-0.582,0-1.123-0.139-1.623-0.416c-0.512-0.281-0.916-0.666-1.213-1.154
		c-0.305-0.488-0.457-1.037-0.457-1.646c0-0.457,0.088-0.879,0.264-1.266c0.176-0.391,0.418-0.73,0.727-1.02
		c0.313-0.297,0.664-0.521,1.055-0.674c0.402-0.156,0.818-0.234,1.248-0.234s0.844,0.078,1.242,0.234
		c0.395,0.152,0.748,0.375,1.061,0.668C107.601,86.698,107.844,87.04,108.019,87.438z M104.99,87.204
		c-0.262,0-0.508,0.066-0.738,0.199c-0.141,0.086-0.277,0.207-0.41,0.363h2.297c-0.133-0.156-0.27-0.277-0.41-0.363
		C105.498,87.27,105.252,87.204,104.99,87.204z"/>
	<path fill="#FFFFFF" d="M113.193,87.555c-0.168-0.141-0.352-0.246-0.551-0.316c-0.207-0.07-0.426-0.105-0.656-0.105
		c-0.43,0-0.793,0.139-1.09,0.416c-0.301,0.277-0.451,0.621-0.451,1.031c0,0.32,0.064,0.607,0.193,0.861
		c0.125,0.254,0.311,0.455,0.557,0.604c0.238,0.152,0.514,0.229,0.826,0.229c0.461,0,0.855-0.146,1.184-0.439l1.025,1.301
		c-0.148,0.156-0.355,0.295-0.621,0.416c-0.27,0.121-0.547,0.211-0.832,0.27s-0.549,0.088-0.791,0.088
		c-0.68,0-1.279-0.143-1.799-0.428c-0.52-0.289-0.918-0.668-1.195-1.137c-0.277-0.477-0.416-0.986-0.416-1.529
		c0-0.496,0.084-0.945,0.252-1.348c0.172-0.41,0.408-0.762,0.709-1.055c0.297-0.285,0.658-0.51,1.084-0.674
		c0.422-0.16,0.877-0.24,1.365-0.24c0.398,0,0.787,0.063,1.166,0.188c0.383,0.129,0.721,0.311,1.014,0.545L113.193,87.555z"/>
	<path fill="#FFFFFF" d="M115.332,87.344h-1.236l0.422-1.605h0.814V83.43l1.869,0.012v2.297h1.242l-0.416,1.605h-0.826v1.986
		c0,0.531,0.332,0.797,0.996,0.797c0.215,0,0.379-0.025,0.492-0.076l-0.539,1.863c-0.098,0.016-0.193,0.023-0.287,0.023
		c-0.559,0-1.023-0.09-1.395-0.27c-0.375-0.18-0.658-0.451-0.85-0.814c-0.191-0.359-0.287-0.818-0.287-1.377V87.344z"/>
	<path fill="#FFFFFF" d="M119.129,90.297c0.102-0.164,0.232-0.291,0.393-0.381c0.164-0.094,0.338-0.141,0.521-0.141
		s0.357,0.047,0.521,0.141c0.16,0.098,0.289,0.227,0.387,0.387c0.098,0.156,0.146,0.328,0.146,0.516c0,0.313-0.102,0.57-0.305,0.773
		c-0.207,0.207-0.457,0.311-0.75,0.311c-0.195,0-0.373-0.047-0.533-0.141c-0.164-0.094-0.293-0.225-0.387-0.393
		c-0.094-0.172-0.141-0.355-0.141-0.551C118.982,90.627,119.031,90.454,119.129,90.297z"/>
</g>
</svg>
